PathFileType  4	(X/Y/Z) /Users/kristensteudel/Documents/NMBL_Research/BertecForceProcessing/anc_files/
DataRate	CameraRate	NumFrames	NumMarkers	Units	OrigDataRate	OrigDataStartFrame	OrigNumFrames
  200.0		  200.0		    4		     46		 mm	  200.0	      160	    636
Frame#	Time	r_knee			r_shank_antsup			r_ankle			r_calc			r_5meta			r_toe			L_knee			L_shank_antsup			L_ankle			L_calc			L_5meta			L_toe			r_sh2			r_sh3			r_sh4			L_sh2			L_sh3			r_thigh1			r_thigh2			r_thigh3			r_thigh4			r_thigh5			L_thigh1			L_thigh2			L_thigh3			L_thigh4			r.ASIS			r.PSIS			L.ASIS			L.PSIS			C7			R_Shoulder			L_Shoulder			Sternum			R_humerus			R_elbow_med			R_elbow_lat			R_forearm			R_wrist_radius			R_wrist_ulna			L_humerus			L_elbow_med			L_elbow_lat			L_forearm			L_wrist_radius			L_wrist_ulna			
		X1	Y1	Z1	X2	Y2	Z2	X3	Y3	Z3	X4	Y4	Z4	X5	Y5	Z5	X6	Y6	Z6	X7	Y7	Z7	X8	Y8	Z8	X9	Y9	Z9	X10	Y10	Z10	X11	Y11	Z11	X12	Y12	Z12	X13	Y13	Z13	X14	Y14	Z14	X15	Y15	Z15	X16	Y16	Z16	X17	Y17	Z17	X18	Y18	Z18	X19	Y19	Z19	X20	Y20	Z20	X21	Y21	Z21	X22	Y22	Z22	X23	Y23	Z23	X24	Y24	Z24	X25	Y25	Z25	X26	Y26	Z26	X27	Y27	Z27	X28	Y28	Z28	X29	Y29	Z29	X30	Y30	Z30	X31	Y31	Z31	X32	Y32	Z32	X33	Y33	Z33	X34	Y34	Z34	X35	Y35	Z35	X36	Y36	Z36	X37	Y37	Z37	X38	Y38	Z38	X39	Y39	Z39	X40	Y40	Z40	X41	Y41	Z41	X42	Y42	Z42	X43	Y43	Z43	X44	Y44	Z44	X45	Y45	Z45	X46	Y46	Z46	

160	0.79500	1160.726	667.857	-210.963	1222.913	563.826	-207.562	1285.412	240.746	-254.392	1215.667	197.905	-317.972	1413.680	184.329	-232.455	1447.078	227.066	-289.107	650.340	560.578	-480.116	542.379	497.046	-481.722	232.386	484.358	-447.957	216.876	551.439	-406.740	142.525	340.507	-426.870	165.639	320.876	-356.429	1256.749	449.902	-222.663	1156.301	539.360	-185.099	1177.219	428.980	-212.972	528.978	584.828	-503.914	411.047	559.676	-482.547	1074.709	882.004	-176.081	1149.465	798.544	-201.837	1140.426	744.014	-185.747	999.892	803.161	-148.207	1077.121	722.610	-185.649	835.269	721.396	-492.969	769.893	599.405	-467.556	731.923	771.861	-525.121	672.648	650.278	-488.662	920.798	1024.359	-193.477	719.279	1077.020	-277.432	921.577	1031.303	-460.021	718.509	1095.290	-384.628	824.543	1565.687	-341.395	805.101	1541.252	-141.705	946.824	1529.711	-495.045	964.041	1461.069	-276.213	633.012	1422.796	-95.495	496.802	1410.533	-192.595	494.503	1437.418	-110.012	562.438	1278.550	-79.509	598.725	1165.274	-78.708	546.754	1156.523	-68.473	926.104	1301.215	-605.550	805.832	1180.738	-594.262	854.298	1231.805	-667.313	983.558	1257.975	-564.130	1024.804	1313.875	-469.540	1057.220	1256.269	-494.502
161	0.80000	1151.878	654.887	-211.425	1219.532	556.019	-209.730	1292.620	236.125	-254.863	1223.810	191.066	-317.919	1422.987	182.686	-234.712	1456.222	227.477	-290.838	658.949	558.944	-481.794	549.174	501.016	-483.281	238.977	505.825	-448.956	226.444	573.770	-408.135	142.886	366.303	-427.406	164.430	344.789	-355.673	1254.627	442.686	-224.129	1154.921	530.745	-181.732	1175.595	421.327	-212.586	540.222	589.428	-505.440	421.112	569.679	-484.042	1072.483	872.064	-176.529	1143.128	785.792	-202.654	1132.324	731.488	-185.801	994.293	796.429	-148.130	1067.856	712.688	-185.531	839.942	722.080	-493.988	777.366	598.537	-470.127	735.711	770.662	-526.234	679.013	647.616	-490.215	919.222	1025.581	-192.616	718.702	1077.939	-277.382	921.673	1033.154	-459.099	717.685	1096.070	-383.583	826.911	1568.531	-340.170	806.971	1541.599	-140.938	947.756	1530.985	-494.474	964.690	1461.786	-276.251	634.777	1420.864	-95.300	499.134	1407.372	-193.145	496.280	1433.830	-110.672	565.110	1275.139	-80.413	602.221	1161.898	-80.079	550.256	1153.097	-70.535	922.856	1303.270	-605.721	799.077	1185.866	-594.891	848.829	1235.723	-667.636	979.713	1255.271	-565.296	1024.133	1309.018	-469.647	1054.038	1250.157	-495.349
162	0.80500	1143.103	643.294	-211.554	1214.557	550.132	-211.075	1295.997	230.185	-255.933	1228.579	185.048	-318.021	1428.343	179.469	-236.944	1460.359	226.296	-293.095	667.586	557.296	-484.018	553.549	508.999	-483.469	247.571	526.708	-449.710	237.765	595.110	-409.160	145.725	391.225	-428.167	166.077	369.037	-356.524	1251.311	437.473	-224.979	1151.784	524.484	-181.526	1172.526	414.841	-210.247	551.919	593.079	-506.818	431.985	579.842	-485.222	1069.047	862.189	-176.608	1135.994	772.726	-203.357	1123.621	719.295	-185.101	988.327	789.860	-147.332	1058.271	703.153	-184.873	845.038	722.807	-494.981	785.044	597.705	-472.930	739.824	769.319	-527.510	685.670	645.171	-492.174	918.321	1027.011	-191.297	717.793	1078.430	-277.508	921.518	1034.518	-458.210	716.961	1096.560	-383.169	829.121	1570.529	-339.116	808.767	1541.550	-140.201	948.649	1532.043	-494.115	965.496	1462.142	-276.473	636.584	1418.101	-95.487	501.607	1402.996	-193.936	498.165	1429.117	-111.184	568.260	1270.716	-81.279	606.551	1158.104	-80.673	554.315	1148.698	-72.277	919.184	1305.140	-605.864	791.810	1190.927	-594.847	843.208	1239.642	-667.524	975.641	1252.467	-565.985	1023.406	1302.879	-469.925	1050.397	1242.984	-496.683
163	0.81000	1134.247	632.984	-211.593	1207.492	545.524	-212.836	1296.566	225.490	-256.379	1229.680	179.903	-318.554	1430.769	175.565	-240.488	1461.347	223.577	-295.495	677.489	555.727	-486.798	564.423	509.142	-484.533	257.556	547.001	-450.595	250.880	615.621	-409.667	150.699	415.021	-429.259	170.037	391.953	-358.040	1246.731	433.430	-225.198	1145.009	518.266	-182.504	1169.048	409.219	-208.418	564.645	596.744	-508.406	444.254	589.261	-486.164	1064.927	853.391	-176.902	1128.374	760.386	-203.602	1114.792	707.745	-183.776	982.111	783.715	-146.142	1048.526	694.161	-184.101	850.159	723.290	-496.204	793.276	596.552	-475.463	744.264	767.753	-528.492	692.947	642.113	-494.246	917.248	1028.549	-191.054	716.857	1078.530	-277.508	921.557	1035.800	-457.327	716.106	1096.743	-382.850	831.156	1572.285	-337.858	810.778	1541.014	-139.459	949.614	1532.944	-493.926	966.326	1462.177	-276.753	638.816	1414.750	-95.578	504.469	1397.710	-194.377	500.284	1423.335	-111.626	572.022	1265.652	-81.781	611.532	1153.445	-81.550	559.355	1143.218	-73.810	915.004	1306.764	-606.027	784.496	1195.952	-594.747	837.492	1243.389	-666.840	971.153	1249.024	-566.929	1022.336	1295.081	-470.685	1046.148	1234.829	-498.517
